<mxfile host="app.diagrams.net" agent="Mozilla/5.0 (X11; Linux x86_64) AppleWebKit/537.36 (KHTML, like Gecko) Chrome/134.0.0.0 Safari/537.36" scale="1" border="0" version="26.1.1">
  <diagram id="Ht1M8jgEwFfnCIfOTk4-" name="Page-1">
    <mxGraphModel dx="3453" dy="11015" grid="1" gridSize="10" guides="1" tooltips="1" connect="1" arrows="1" fold="1" page="1" pageScale="1" pageWidth="827" pageHeight="1169" math="0" shadow="0">
      <root>
        <mxCell id="0" />
        <mxCell id="1" parent="0" />
        <mxCell id="4irvc4jYHN3HbSZMmXNK-88" value="&lt;span&gt;Private subnet&lt;/span&gt;" style="points=[[0,0],[0.25,0],[0.5,0],[0.75,0],[1,0],[1,0.25],[1,0.5],[1,0.75],[1,1],[0.75,1],[0.5,1],[0.25,1],[0,1],[0,0.75],[0,0.5],[0,0.25]];outlineConnect=0;gradientColor=none;html=1;whiteSpace=wrap;fontSize=14;fontStyle=1;container=1;pointerEvents=0;collapsible=0;recursiveResize=0;shape=mxgraph.aws4.group;grIcon=mxgraph.aws4.group_security_group;grStroke=0;strokeColor=#00A4A6;fillColor=#E6F6F7;verticalAlign=top;align=left;spacingLeft=30;fontColor=#147EBA;dashed=0;" parent="1" vertex="1">
          <mxGeometry x="1873" y="-6369" width="260" height="90" as="geometry" />
        </mxCell>
        <mxCell id="SJvPJ_kMrdc4SI9LKanf-9" value="&lt;br&gt;&lt;div&gt;&lt;br&gt;&lt;/div&gt;&lt;div&gt;&lt;br&gt;&lt;/div&gt;&lt;div&gt;&lt;br&gt;&lt;/div&gt;&lt;div&gt;&lt;br&gt;&lt;/div&gt;&lt;div&gt;&lt;br&gt;&lt;/div&gt;&lt;div&gt;&lt;br&gt;&lt;/div&gt;&lt;div&gt;&lt;br&gt;&lt;/div&gt;&lt;div&gt;&lt;br&gt;&lt;/div&gt;&lt;div&gt;&lt;br&gt;&lt;/div&gt;&lt;div&gt;&lt;br&gt;&lt;/div&gt;&lt;div&gt;&lt;br&gt;&lt;/div&gt;&lt;div&gt;&lt;br&gt;&lt;/div&gt;&lt;div&gt;&lt;br&gt;&lt;/div&gt;&lt;div&gt;&lt;br&gt;&lt;/div&gt;&lt;div&gt;&lt;br&gt;&lt;/div&gt;&lt;div&gt;&lt;br&gt;&lt;/div&gt;&lt;div&gt;&lt;br&gt;&lt;/div&gt;&lt;div&gt;&lt;br&gt;&lt;/div&gt;&lt;div&gt;&lt;br&gt;&lt;/div&gt;&lt;div&gt;&lt;br&gt;&lt;/div&gt;&lt;div&gt;&lt;br&gt;&lt;/div&gt;&lt;div&gt;&lt;br&gt;&lt;/div&gt;&lt;div&gt;&lt;br&gt;&lt;/div&gt;&lt;div&gt;&lt;br&gt;&lt;/div&gt;&lt;div&gt;&lt;br&gt;&lt;/div&gt;&lt;div&gt;&lt;br&gt;&lt;/div&gt;&lt;div&gt;&lt;br&gt;&lt;/div&gt;&lt;div&gt;&lt;br&gt;&lt;/div&gt;&lt;div&gt;&lt;br&gt;&lt;/div&gt;&lt;div&gt;&lt;br&gt;&lt;/div&gt;&lt;div&gt;&lt;br&gt;&lt;/div&gt;&lt;div&gt;&lt;br&gt;&lt;/div&gt;&lt;div&gt;&lt;br&gt;&lt;/div&gt;&lt;div&gt;&lt;br&gt;&lt;/div&gt;&lt;div&gt;&lt;br&gt;&lt;/div&gt;&lt;div&gt;&lt;br&gt;&lt;/div&gt;&lt;div&gt;&lt;br&gt;&lt;/div&gt;&lt;div&gt;&lt;br&gt;&lt;/div&gt;&lt;div&gt;&lt;br&gt;&lt;/div&gt;&lt;div&gt;&lt;br&gt;&lt;/div&gt;&lt;div&gt;&lt;br&gt;&lt;/div&gt;&lt;div&gt;&lt;br&gt;&lt;/div&gt;&lt;div&gt;&lt;br&gt;&lt;/div&gt;&lt;div&gt;&lt;br&gt;&lt;/div&gt;&lt;div&gt;&lt;br&gt;&lt;/div&gt;&lt;div&gt;&lt;br&gt;&lt;/div&gt;&lt;div&gt;&lt;br&gt;&lt;/div&gt;&lt;div&gt;&lt;br&gt;&lt;/div&gt;&lt;div&gt;&lt;br&gt;&lt;/div&gt;&lt;div&gt;&lt;br&gt;&lt;/div&gt;&lt;div&gt;&lt;br&gt;&lt;/div&gt;&lt;div&gt;&lt;br&gt;&lt;/div&gt;&lt;div&gt;&lt;br&gt;&lt;/div&gt;&lt;div&gt;&lt;br&gt;&lt;/div&gt;&lt;div&gt;&lt;br&gt;&lt;/div&gt;&lt;div&gt;&lt;br&gt;&lt;/div&gt;&lt;div&gt;&lt;br&gt;&lt;/div&gt;&lt;div&gt;&lt;br&gt;&lt;/div&gt;&lt;div&gt;&lt;br&gt;&lt;/div&gt;&lt;div&gt;&lt;br&gt;&lt;/div&gt;&lt;div&gt;&lt;br&gt;&lt;/div&gt;&lt;div&gt;&lt;br&gt;&lt;/div&gt;&lt;div&gt;&lt;br&gt;&lt;/div&gt;&lt;div&gt;&lt;br&gt;&lt;/div&gt;&lt;div&gt;&lt;br&gt;&lt;/div&gt;&lt;div&gt;&lt;br&gt;&lt;/div&gt;&lt;div&gt;&lt;br&gt;&lt;/div&gt;&lt;div&gt;&lt;br&gt;&lt;/div&gt;&lt;div&gt;&lt;br&gt;&lt;/div&gt;&lt;div&gt;&lt;br&gt;&lt;/div&gt;&lt;div&gt;&lt;br&gt;&lt;/div&gt;&lt;div&gt;&lt;br&gt;&lt;/div&gt;&lt;div&gt;&lt;br&gt;&lt;/div&gt;&lt;div&gt;&lt;br&gt;&lt;/div&gt;&lt;div&gt;&lt;br&gt;&lt;/div&gt;&lt;div&gt;&lt;br&gt;&lt;/div&gt;&lt;div&gt;&lt;br&gt;&lt;/div&gt;&lt;div&gt;&lt;br&gt;&lt;/div&gt;&lt;div&gt;&lt;br&gt;&lt;br&gt;&lt;br&gt;&lt;br&gt;&lt;br&gt;&lt;/div&gt;&lt;div&gt;&lt;br&gt;&lt;/div&gt;&lt;div&gt;&lt;br&gt;&lt;/div&gt;" style="sketch=0;outlineConnect=0;gradientColor=none;html=1;whiteSpace=wrap;fontSize=14;fontStyle=1;shape=mxgraph.aws4.group;grIcon=mxgraph.aws4.group_vpc;strokeColor=#B6BABF;fillColor=none;verticalAlign=bottom;align=right;spacingLeft=30;fontColor=#000000;dashed=0;strokeWidth=3;labelPosition=left;verticalLabelPosition=top;" parent="1" vertex="1">
          <mxGeometry x="680" y="-6917" width="1589" height="880" as="geometry" />
        </mxCell>
        <mxCell id="SJvPJ_kMrdc4SI9LKanf-39" value="&lt;span&gt;Availability zone&amp;nbsp;B&lt;/span&gt;" style="fillColor=none;strokeColor=#147EBA;dashed=1;verticalAlign=bottom;fontStyle=1;fontColor=#147EBA;whiteSpace=wrap;html=1;labelPosition=left;verticalLabelPosition=top;align=right;strokeWidth=3;fontSize=14;" parent="1" vertex="1">
          <mxGeometry x="949" y="-6837" width="1241" height="110" as="geometry" />
        </mxCell>
        <mxCell id="SJvPJ_kMrdc4SI9LKanf-41" value="&lt;span&gt;Availability zone A&lt;/span&gt;" style="fillColor=none;strokeColor=#147EBA;dashed=1;verticalAlign=top;fontStyle=1;fontColor=#147EBA;whiteSpace=wrap;html=1;labelPosition=left;verticalLabelPosition=bottom;align=right;strokeWidth=3;fontSize=14;" parent="1" vertex="1">
          <mxGeometry x="931" y="-6376" width="1259" height="110" as="geometry" />
        </mxCell>
        <mxCell id="jZVaUwOg5UY3L9NAnvdq-71" value="AWS Cloud" style="points=[[0,0],[0.25,0],[0.5,0],[0.75,0],[1,0],[1,0.25],[1,0.5],[1,0.75],[1,1],[0.75,1],[0.5,1],[0.25,1],[0,1],[0,0.75],[0,0.5],[0,0.25]];outlineConnect=0;gradientColor=none;html=1;whiteSpace=wrap;fontSize=14;fontStyle=1;shape=mxgraph.aws4.group;grIcon=mxgraph.aws4.group_aws_cloud_alt;strokeColor=#232F3E;fillColor=none;verticalAlign=top;align=left;spacingLeft=30;fontColor=#232F3E;dashed=0;labelBackgroundColor=none;container=1;pointerEvents=0;collapsible=0;recursiveResize=0;strokeWidth=3;" parent="1" vertex="1">
          <mxGeometry x="270" y="-6960" width="2040" height="1092" as="geometry" />
        </mxCell>
        <mxCell id="SJvPJ_kMrdc4SI9LKanf-29" value="" style="edgeStyle=orthogonalEdgeStyle;rounded=0;orthogonalLoop=1;jettySize=auto;html=1;strokeWidth=3;fontStyle=1;fontSize=14;" parent="jZVaUwOg5UY3L9NAnvdq-71" edge="1">
          <mxGeometry relative="1" as="geometry">
            <mxPoint x="320" y="400" as="targetPoint" />
            <mxPoint x="100" y="400" as="sourcePoint" />
          </mxGeometry>
        </mxCell>
        <mxCell id="SJvPJ_kMrdc4SI9LKanf-7" value="" style="sketch=0;points=[[0,0,0],[0.25,0,0],[0.5,0,0],[0.75,0,0],[1,0,0],[0,1,0],[0.25,1,0],[0.5,1,0],[0.75,1,0],[1,1,0],[0,0.25,0],[0,0.5,0],[0,0.75,0],[1,0.25,0],[1,0.5,0],[1,0.75,0]];outlineConnect=0;fontColor=#232F3E;fillColor=#8C4FFF;strokeColor=#ffffff;dashed=0;verticalLabelPosition=bottom;verticalAlign=top;align=center;html=1;fontSize=14;fontStyle=1;aspect=fixed;shape=mxgraph.aws4.resourceIcon;resIcon=mxgraph.aws4.route_53;strokeWidth=3;" parent="jZVaUwOg5UY3L9NAnvdq-71" vertex="1">
          <mxGeometry x="60" y="361" width="78" height="78" as="geometry" />
        </mxCell>
        <mxCell id="SJvPJ_kMrdc4SI9LKanf-24" value="" style="outlineConnect=0;dashed=0;verticalLabelPosition=bottom;verticalAlign=top;align=center;html=1;shape=mxgraph.aws3.application_load_balancer;fillColor=#F58534;gradientColor=none;fontStyle=1;strokeWidth=3;fontSize=14;" parent="jZVaUwOg5UY3L9NAnvdq-71" vertex="1">
          <mxGeometry x="471" y="361" width="78" height="78" as="geometry" />
        </mxCell>
        <mxCell id="4irvc4jYHN3HbSZMmXNK-45" value="&lt;span&gt;V&lt;span style=&quot;background-color: transparent; color: light-dark(rgb(0, 0, 0), rgb(255, 255, 255));&quot;&gt;PC&lt;/span&gt;&lt;/span&gt;" style="text;html=1;align=center;verticalAlign=middle;whiteSpace=wrap;rounded=0;fontStyle=1;strokeWidth=3;fontSize=14;" parent="jZVaUwOg5UY3L9NAnvdq-71" vertex="1">
          <mxGeometry x="443" y="50" width="60" height="30" as="geometry" />
        </mxCell>
        <mxCell id="4irvc4jYHN3HbSZMmXNK-49" value="" style="outlineConnect=0;dashed=0;verticalLabelPosition=bottom;verticalAlign=top;align=center;html=1;shape=mxgraph.aws3.cache_node;fillColor=#2E73B8;gradientColor=none;fontStyle=1;strokeWidth=3;fontSize=14;" parent="jZVaUwOg5UY3L9NAnvdq-71" vertex="1">
          <mxGeometry x="1700" y="803" width="50" height="47" as="geometry" />
        </mxCell>
        <mxCell id="4irvc4jYHN3HbSZMmXNK-53" value="&lt;span&gt;Amazon ElastiCache&lt;/span&gt;" style="text;html=1;align=center;verticalAlign=middle;whiteSpace=wrap;rounded=0;fontStyle=1;strokeWidth=3;fontSize=14;" parent="jZVaUwOg5UY3L9NAnvdq-71" vertex="1">
          <mxGeometry x="1690" y="853" width="60" height="30" as="geometry" />
        </mxCell>
        <mxCell id="4irvc4jYHN3HbSZMmXNK-51" value="" style="edgeStyle=orthogonalEdgeStyle;html=1;endArrow=none;elbow=vertical;startArrow=block;startFill=1;strokeColor=#000000;rounded=0;strokeWidth=3;fontStyle=1;fontSize=14;" parent="jZVaUwOg5UY3L9NAnvdq-71" edge="1">
          <mxGeometry width="100" relative="1" as="geometry">
            <mxPoint x="1730" y="803" as="sourcePoint" />
            <mxPoint x="1730" y="643" as="targetPoint" />
          </mxGeometry>
        </mxCell>
        <mxCell id="4irvc4jYHN3HbSZMmXNK-54" value="" style="edgeStyle=orthogonalEdgeStyle;html=1;endArrow=none;elbow=vertical;startArrow=block;startFill=1;strokeColor=#000000;rounded=0;strokeWidth=3;fontStyle=1;fontSize=14;" parent="jZVaUwOg5UY3L9NAnvdq-71" edge="1">
          <mxGeometry width="100" relative="1" as="geometry">
            <mxPoint x="1336" y="1003" as="sourcePoint" />
            <mxPoint x="1764" y="643" as="targetPoint" />
            <Array as="points">
              <mxPoint x="1400" y="1003" />
              <mxPoint x="1764" y="1003" />
            </Array>
          </mxGeometry>
        </mxCell>
        <mxCell id="4irvc4jYHN3HbSZMmXNK-57" value="&lt;span&gt;Amazon Route 53&lt;/span&gt;" style="text;html=1;align=center;verticalAlign=middle;whiteSpace=wrap;rounded=0;fontStyle=1;strokeWidth=3;fontSize=14;" parent="jZVaUwOg5UY3L9NAnvdq-71" vertex="1">
          <mxGeometry x="48.5" y="442" width="111.5" height="30" as="geometry" />
        </mxCell>
        <mxCell id="4irvc4jYHN3HbSZMmXNK-61" value="&lt;span&gt;Elastic Load Balancing&lt;/span&gt;&lt;div&gt;&lt;span&gt;ALB&lt;/span&gt;&lt;/div&gt;" style="text;html=1;align=center;verticalAlign=middle;whiteSpace=wrap;rounded=0;fontStyle=1;strokeWidth=3;fontSize=14;" parent="jZVaUwOg5UY3L9NAnvdq-71" vertex="1">
          <mxGeometry x="1030" y="450" width="90" height="30" as="geometry" />
        </mxCell>
        <mxCell id="SJvPJ_kMrdc4SI9LKanf-14" value="&lt;span&gt;App Load Balancing&lt;/span&gt;&lt;div&gt;&lt;span&gt;ALB&lt;/span&gt;&lt;/div&gt;" style="text;html=1;align=center;verticalAlign=middle;whiteSpace=wrap;rounded=0;fontStyle=1;strokeWidth=3;fontSize=14;" parent="jZVaUwOg5UY3L9NAnvdq-71" vertex="1">
          <mxGeometry x="465" y="460" width="90" height="30" as="geometry" />
        </mxCell>
        <mxCell id="4irvc4jYHN3HbSZMmXNK-69" value="" style="edgeStyle=orthogonalEdgeStyle;rounded=0;orthogonalLoop=1;jettySize=auto;html=1;strokeWidth=3;fontStyle=1;fontSize=14;" parent="jZVaUwOg5UY3L9NAnvdq-71" edge="1">
          <mxGeometry relative="1" as="geometry">
            <mxPoint x="399" y="399" as="sourcePoint" />
            <mxPoint x="473" y="399" as="targetPoint" />
          </mxGeometry>
        </mxCell>
        <mxCell id="4irvc4jYHN3HbSZMmXNK-71" value="" style="points=[];aspect=fixed;html=1;align=center;shadow=0;dashed=0;fillColor=#FF0000;strokeColor=none;shape=mxgraph.alibaba_cloud.ddos_protection;fontStyle=1;strokeWidth=3;fontSize=14;" parent="jZVaUwOg5UY3L9NAnvdq-71" vertex="1">
          <mxGeometry x="38.45" y="960" width="61.5" height="70.41" as="geometry" />
        </mxCell>
        <mxCell id="4irvc4jYHN3HbSZMmXNK-72" value="&lt;span style=&quot;color: rgb(15, 20, 26); font-family: &amp;quot;Amazon Ember&amp;quot;, &amp;quot;Helvetica Neue&amp;quot;, Roboto, Arial, sans-serif; text-align: start; background-color: rgb(255, 255, 255);&quot;&gt;&lt;font&gt;&lt;span&gt;AWS Shield&lt;/span&gt;&lt;/font&gt;&lt;/span&gt;&lt;div&gt;&lt;font&gt;&lt;span&gt;&lt;span style=&quot;color: rgb(15, 20, 26); font-family: &amp;quot;Amazon Ember&amp;quot;, &amp;quot;Helvetica Neue&amp;quot;, Roboto, Arial, sans-serif; text-align: start; background-color: rgb(255, 255, 255);&quot;&gt;&lt;font&gt;&lt;span style=&quot;font-family: &amp;quot;Amazon Ember&amp;quot;, Helvetica, Arial, sans-serif;&quot;&gt;DDoS&amp;nbsp;&lt;/span&gt;&lt;/font&gt;&lt;/span&gt;&lt;span style=&quot;background-color: rgb(255, 255, 255); color: rgb(15, 20, 26); font-family: &amp;quot;Amazon Ember&amp;quot;, Helvetica, Arial, sans-serif; text-align: start;&quot;&gt;Protection&lt;/span&gt;&lt;/span&gt;&lt;/font&gt;&lt;/div&gt;" style="text;html=1;align=center;verticalAlign=middle;whiteSpace=wrap;rounded=0;fontStyle=1;strokeWidth=3;fontSize=14;" parent="jZVaUwOg5UY3L9NAnvdq-71" vertex="1">
          <mxGeometry x="29.549999999999997" y="1046" width="79.3" height="30" as="geometry" />
        </mxCell>
        <mxCell id="4irvc4jYHN3HbSZMmXNK-70" value="" style="edgeStyle=orthogonalEdgeStyle;rounded=0;orthogonalLoop=1;jettySize=auto;html=1;strokeWidth=3;fontStyle=1;fontSize=14;" parent="jZVaUwOg5UY3L9NAnvdq-71" edge="1">
          <mxGeometry relative="1" as="geometry">
            <mxPoint x="550" y="400" as="sourcePoint" />
            <mxPoint x="637" y="400" as="targetPoint" />
          </mxGeometry>
        </mxCell>
        <mxCell id="4irvc4jYHN3HbSZMmXNK-76" value="" style="group;fontStyle=1;strokeWidth=3;fontSize=14;" parent="jZVaUwOg5UY3L9NAnvdq-71" vertex="1" connectable="0">
          <mxGeometry x="760" y="980" width="260" height="111" as="geometry" />
        </mxCell>
        <mxCell id="4irvc4jYHN3HbSZMmXNK-46" value="" style="sketch=0;pointerEvents=1;shadow=0;dashed=0;html=1;strokeColor=none;fillColor=#DF8C42;labelPosition=center;verticalLabelPosition=bottom;verticalAlign=top;align=center;outlineConnect=0;shape=mxgraph.veeam2.aws_s3;fontStyle=1;strokeWidth=3;fontSize=14;" parent="4irvc4jYHN3HbSZMmXNK-76" vertex="1">
          <mxGeometry x="81" y="-8" width="60" height="60" as="geometry" />
        </mxCell>
        <mxCell id="4irvc4jYHN3HbSZMmXNK-47" value="&lt;span&gt;AWS S3&lt;/span&gt;&lt;div&gt;&lt;span&gt;&amp;nbsp;Backup&amp;nbsp;&lt;/span&gt;&lt;span style=&quot;background-color: transparent; color: light-dark(rgb(0, 0, 0), rgb(255, 255, 255));&quot;&gt;and&lt;/span&gt;&lt;/div&gt;&lt;div&gt;&lt;span&gt;Static storage&lt;/span&gt;&lt;/div&gt;" style="text;html=1;align=center;verticalAlign=middle;whiteSpace=wrap;rounded=0;fontStyle=1;strokeWidth=3;fontSize=14;" parent="4irvc4jYHN3HbSZMmXNK-76" vertex="1">
          <mxGeometry x="-50" y="50" width="310" height="62" as="geometry" />
        </mxCell>
        <mxCell id="4irvc4jYHN3HbSZMmXNK-50" value="" style="edgeStyle=orthogonalEdgeStyle;html=1;endArrow=none;elbow=vertical;startArrow=block;startFill=1;strokeColor=#000000;rounded=0;strokeWidth=3;fontStyle=1;fontSize=14;" parent="jZVaUwOg5UY3L9NAnvdq-71" edge="1">
          <mxGeometry width="100" relative="1" as="geometry">
            <mxPoint x="1309" y="964.1713" as="sourcePoint" />
            <mxPoint x="1309" y="651.9671999999999" as="targetPoint" />
          </mxGeometry>
        </mxCell>
        <mxCell id="4irvc4jYHN3HbSZMmXNK-87" value="&lt;span&gt;Private sub&lt;/span&gt;" style="points=[[0,0],[0.25,0],[0.5,0],[0.75,0],[1,0],[1,0.25],[1,0.5],[1,0.75],[1,1],[0.75,1],[0.5,1],[0.25,1],[0,1],[0,0.75],[0,0.5],[0,0.25]];outlineConnect=0;gradientColor=none;html=1;whiteSpace=wrap;fontSize=14;fontStyle=1;container=1;pointerEvents=0;collapsible=0;recursiveResize=0;shape=mxgraph.aws4.group;grIcon=mxgraph.aws4.group_security_group;grStroke=0;strokeColor=#00A4A6;fillColor=#E6F6F7;verticalAlign=top;align=left;spacingLeft=30;fontColor=#147EBA;dashed=0;" parent="jZVaUwOg5UY3L9NAnvdq-71" vertex="1">
          <mxGeometry x="1603" y="131" width="260" height="90" as="geometry" />
        </mxCell>
        <mxCell id="4irvc4jYHN3HbSZMmXNK-44" value="" style="edgeStyle=orthogonalEdgeStyle;html=1;endArrow=none;elbow=vertical;startArrow=block;startFill=1;strokeColor=#000000;rounded=0;strokeWidth=3;fontStyle=1;targetPerimeterSpacing=0;fontSize=14;" parent="jZVaUwOg5UY3L9NAnvdq-71" edge="1">
          <mxGeometry width="100" relative="1" as="geometry">
            <mxPoint x="1745" y="182" as="sourcePoint" />
            <mxPoint x="1745" y="610" as="targetPoint" />
          </mxGeometry>
        </mxCell>
        <mxCell id="4irvc4jYHN3HbSZMmXNK-38" value="&lt;span&gt;RDS&amp;nbsp;&lt;/span&gt;&lt;div&gt;&lt;span&gt;Main DB&lt;/span&gt;&lt;/div&gt;" style="text;html=1;align=center;verticalAlign=middle;whiteSpace=wrap;rounded=0;fontStyle=1;strokeWidth=3;fontSize=14;" parent="jZVaUwOg5UY3L9NAnvdq-71" vertex="1">
          <mxGeometry x="1771" y="625" width="60" height="30" as="geometry" />
        </mxCell>
        <mxCell id="4irvc4jYHN3HbSZMmXNK-13" value="&lt;span&gt;RDS&amp;nbsp;&lt;/span&gt;&lt;div&gt;&lt;span&gt;Failover DB&lt;/span&gt;&lt;/div&gt;" style="text;html=1;align=center;verticalAlign=middle;whiteSpace=wrap;rounded=0;fontStyle=1;strokeWidth=3;fontSize=14;" parent="jZVaUwOg5UY3L9NAnvdq-71" vertex="1">
          <mxGeometry x="1774" y="151" width="90" height="30" as="geometry" />
        </mxCell>
        <mxCell id="4irvc4jYHN3HbSZMmXNK-80" value="" style="edgeStyle=orthogonalEdgeStyle;html=1;endArrow=none;elbow=vertical;startArrow=block;startFill=1;strokeColor=#000000;rounded=0;strokeWidth=3;fontStyle=1;fontSize=14;" parent="jZVaUwOg5UY3L9NAnvdq-71" edge="1">
          <mxGeometry width="100" relative="1" as="geometry">
            <mxPoint x="874" y="970.0767999999999" as="sourcePoint" />
            <mxPoint x="874.014" y="655.9042" as="targetPoint" />
          </mxGeometry>
        </mxCell>
        <mxCell id="XEu-bYECJoRecKrQS_ZT-3" value="&lt;font style=&quot;font-size: 14px;&quot;&gt;Amazon CloudWatch&lt;/font&gt;" style="sketch=0;outlineConnect=0;fontColor=#232F3E;gradientColor=none;strokeColor=#ffffff;fillColor=#232F3E;dashed=0;verticalLabelPosition=middle;verticalAlign=bottom;align=center;html=1;whiteSpace=wrap;fontSize=10;fontStyle=1;spacing=3;shape=mxgraph.aws4.productIcon;prIcon=mxgraph.aws4.cloudwatch;" parent="jZVaUwOg5UY3L9NAnvdq-71" vertex="1">
          <mxGeometry x="143" y="960" width="80" height="120" as="geometry" />
        </mxCell>
        <mxCell id="SJvPJ_kMrdc4SI9LKanf-8" value="" style="edgeStyle=orthogonalEdgeStyle;rounded=0;orthogonalLoop=1;jettySize=auto;html=1;strokeWidth=3;fontStyle=1;fontSize=14;" parent="1" target="SJvPJ_kMrdc4SI9LKanf-7" edge="1">
          <mxGeometry relative="1" as="geometry">
            <mxPoint x="240" y="-6560" as="sourcePoint" />
          </mxGeometry>
        </mxCell>
        <mxCell id="SJvPJ_kMrdc4SI9LKanf-31" value="" style="endArrow=none;html=1;rounded=0;entryX=0.24;entryY=0.236;entryDx=0;entryDy=0;entryPerimeter=0;strokeWidth=3;fontStyle=1;fontSize=14;" parent="1" edge="1">
          <mxGeometry width="50" height="50" relative="1" as="geometry">
            <mxPoint x="906" y="-6319" as="sourcePoint" />
            <mxPoint x="906" y="-6799.08" as="targetPoint" />
          </mxGeometry>
        </mxCell>
        <mxCell id="SJvPJ_kMrdc4SI9LKanf-38" value="&lt;span&gt;Auto Scaling group&lt;/span&gt;" style="points=[[0,0],[0.25,0],[0.5,0],[0.75,0],[1,0],[1,0.25],[1,0.5],[1,0.75],[1,1],[0.75,1],[0.5,1],[0.25,1],[0,1],[0,0.75],[0,0.5],[0,0.25]];outlineConnect=0;gradientColor=none;html=1;whiteSpace=wrap;fontSize=14;fontStyle=1;container=1;pointerEvents=0;collapsible=0;recursiveResize=0;shape=mxgraph.aws4.groupCenter;grIcon=mxgraph.aws4.group_auto_scaling_group;grStroke=1;strokeColor=#D86613;fillColor=none;verticalAlign=top;align=center;fontColor=#D86613;dashed=1;spacingTop=25;strokeWidth=3;" parent="1" vertex="1">
          <mxGeometry x="982" y="-6897" width="298" height="660" as="geometry" />
        </mxCell>
        <mxCell id="4irvc4jYHN3HbSZMmXNK-82" value="&lt;span&gt;Public sub&lt;/span&gt;" style="points=[[0,0],[0.25,0],[0.5,0],[0.75,0],[1,0],[1,0.25],[1,0.5],[1,0.75],[1,1],[0.75,1],[0.5,1],[0.25,1],[0,1],[0,0.75],[0,0.5],[0,0.25]];outlineConnect=0;html=1;whiteSpace=wrap;fontSize=14;fontStyle=1;container=1;pointerEvents=0;collapsible=0;recursiveResize=0;shape=mxgraph.aws4.group;grIcon=mxgraph.aws4.group_security_group;grStroke=0;strokeColor=#82b366;fillColor=#d5e8d4;verticalAlign=top;align=left;spacingLeft=30;dashed=0;" parent="SJvPJ_kMrdc4SI9LKanf-38" vertex="1">
          <mxGeometry x="17" y="530" width="260" height="90" as="geometry" />
        </mxCell>
        <mxCell id="4irvc4jYHN3HbSZMmXNK-83" value="&lt;span&gt;Public sub&lt;/span&gt;" style="points=[[0,0],[0.25,0],[0.5,0],[0.75,0],[1,0],[1,0.25],[1,0.5],[1,0.75],[1,1],[0.75,1],[0.5,1],[0.25,1],[0,1],[0,0.75],[0,0.5],[0,0.25]];outlineConnect=0;html=1;whiteSpace=wrap;fontSize=14;fontStyle=1;container=1;pointerEvents=0;collapsible=0;recursiveResize=0;shape=mxgraph.aws4.group;grIcon=mxgraph.aws4.group_security_group;grStroke=0;strokeColor=#82b366;fillColor=#d5e8d4;verticalAlign=top;align=left;spacingLeft=30;dashed=0;" parent="SJvPJ_kMrdc4SI9LKanf-38" vertex="1">
          <mxGeometry x="19" y="67" width="260" height="90" as="geometry" />
        </mxCell>
        <mxCell id="4irvc4jYHN3HbSZMmXNK-1" value="&lt;span&gt;EC2&lt;/span&gt;&lt;div&gt;&lt;span&gt;Frontend&lt;/span&gt;&lt;/div&gt;" style="text;html=1;align=center;verticalAlign=middle;whiteSpace=wrap;rounded=0;fontStyle=1;strokeWidth=3;fontSize=14;" parent="SJvPJ_kMrdc4SI9LKanf-38" vertex="1">
          <mxGeometry x="89" y="588" width="60" height="30" as="geometry" />
        </mxCell>
        <mxCell id="4irvc4jYHN3HbSZMmXNK-3" value="&lt;span&gt;Auto Scaling group&lt;/span&gt;" style="points=[[0,0],[0.25,0],[0.5,0],[0.75,0],[1,0],[1,0.25],[1,0.5],[1,0.75],[1,1],[0.75,1],[0.5,1],[0.25,1],[0,1],[0,0.75],[0,0.5],[0,0.25]];outlineConnect=0;gradientColor=none;html=1;whiteSpace=wrap;fontSize=14;fontStyle=1;container=1;pointerEvents=0;collapsible=0;recursiveResize=0;shape=mxgraph.aws4.groupCenter;grIcon=mxgraph.aws4.group_auto_scaling_group;grStroke=1;strokeColor=#D86613;fillColor=none;verticalAlign=top;align=center;fontColor=#D86613;dashed=1;spacingTop=25;strokeWidth=3;" parent="1" vertex="1">
          <mxGeometry x="1430" y="-6897" width="284" height="660" as="geometry" />
        </mxCell>
        <mxCell id="4irvc4jYHN3HbSZMmXNK-85" value="&lt;span&gt;Private sub&lt;/span&gt;" style="points=[[0,0],[0.25,0],[0.5,0],[0.75,0],[1,0],[1,0.25],[1,0.5],[1,0.75],[1,1],[0.75,1],[0.5,1],[0.25,1],[0,1],[0,0.75],[0,0.5],[0,0.25]];outlineConnect=0;gradientColor=none;html=1;whiteSpace=wrap;fontSize=14;fontStyle=1;container=1;pointerEvents=0;collapsible=0;recursiveResize=0;shape=mxgraph.aws4.group;grIcon=mxgraph.aws4.group_security_group;grStroke=0;strokeColor=#00A4A6;fillColor=#E6F6F7;verticalAlign=top;align=left;spacingLeft=30;fontColor=#147EBA;dashed=0;" parent="4irvc4jYHN3HbSZMmXNK-3" vertex="1">
          <mxGeometry x="10" y="66" width="260" height="90" as="geometry" />
        </mxCell>
        <mxCell id="4irvc4jYHN3HbSZMmXNK-10" value="&lt;span&gt;EC2&lt;/span&gt;&lt;div&gt;&lt;span&gt;Backend&lt;/span&gt;&lt;/div&gt;" style="text;html=1;align=center;verticalAlign=middle;whiteSpace=wrap;rounded=0;fontStyle=1;strokeWidth=3;fontSize=14;" parent="4irvc4jYHN3HbSZMmXNK-3" vertex="1">
          <mxGeometry x="118" y="122" width="60" height="30" as="geometry" />
        </mxCell>
        <mxCell id="4irvc4jYHN3HbSZMmXNK-11" value="" style="sketch=0;outlineConnect=0;fontColor=#232F3E;gradientColor=none;fillColor=#ED7100;strokeColor=none;dashed=0;verticalLabelPosition=bottom;verticalAlign=top;align=center;html=1;fontSize=14;fontStyle=1;aspect=fixed;pointerEvents=1;shape=mxgraph.aws4.instances;strokeWidth=3;" parent="4irvc4jYHN3HbSZMmXNK-3" vertex="1">
          <mxGeometry x="129" y="70" width="48" height="48" as="geometry" />
        </mxCell>
        <mxCell id="4irvc4jYHN3HbSZMmXNK-86" value="&lt;span&gt;Private sub&lt;/span&gt;" style="points=[[0,0],[0.25,0],[0.5,0],[0.75,0],[1,0],[1,0.25],[1,0.5],[1,0.75],[1,1],[0.75,1],[0.5,1],[0.25,1],[0,1],[0,0.75],[0,0.5],[0,0.25]];outlineConnect=0;gradientColor=none;html=1;whiteSpace=wrap;fontSize=14;fontStyle=1;container=1;pointerEvents=0;collapsible=0;recursiveResize=0;shape=mxgraph.aws4.group;grIcon=mxgraph.aws4.group_security_group;grStroke=0;strokeColor=#00A4A6;fillColor=#E6F6F7;verticalAlign=top;align=left;spacingLeft=30;fontColor=#147EBA;dashed=0;" parent="4irvc4jYHN3HbSZMmXNK-3" vertex="1">
          <mxGeometry x="5" y="536" width="260" height="90" as="geometry" />
        </mxCell>
        <mxCell id="4irvc4jYHN3HbSZMmXNK-4" value="&lt;span&gt;EC2&lt;/span&gt;&lt;div&gt;&lt;span&gt;Backend&lt;/span&gt;&lt;/div&gt;" style="text;html=1;align=center;verticalAlign=middle;whiteSpace=wrap;rounded=0;fontStyle=1;strokeWidth=3;fontSize=14;" parent="4irvc4jYHN3HbSZMmXNK-3" vertex="1">
          <mxGeometry x="90" y="593" width="60" height="30" as="geometry" />
        </mxCell>
        <mxCell id="4irvc4jYHN3HbSZMmXNK-52" value="" style="edgeStyle=elbowEdgeStyle;elbow=horizontal;endArrow=classic;html=1;curved=0;rounded=0;endSize=8;startSize=8;strokeWidth=3;fontStyle=1;fontSize=14;" parent="4irvc4jYHN3HbSZMmXNK-3" edge="1">
          <mxGeometry width="50" height="50" relative="1" as="geometry">
            <mxPoint x="161" y="591" as="sourcePoint" />
            <mxPoint x="540" y="780" as="targetPoint" />
            <Array as="points">
              <mxPoint x="160" y="712" />
            </Array>
          </mxGeometry>
        </mxCell>
        <mxCell id="4irvc4jYHN3HbSZMmXNK-9" value="" style="sketch=0;outlineConnect=0;fontColor=#232F3E;gradientColor=none;fillColor=#ED7100;strokeColor=none;dashed=0;verticalLabelPosition=bottom;verticalAlign=top;align=center;html=1;fontSize=14;fontStyle=1;aspect=fixed;pointerEvents=1;shape=mxgraph.aws4.instances;strokeWidth=3;" parent="1" vertex="1">
          <mxGeometry x="1554" y="-6353" width="48" height="48" as="geometry" />
        </mxCell>
        <mxCell id="4irvc4jYHN3HbSZMmXNK-22" value="" style="outlineConnect=0;dashed=0;verticalLabelPosition=bottom;verticalAlign=top;align=center;html=1;shape=mxgraph.aws3.application_load_balancer;fillColor=#F58534;gradientColor=none;fontStyle=1;strokeWidth=3;fontSize=14;" parent="1" vertex="1">
          <mxGeometry x="1308" y="-6596.25" width="69" height="72" as="geometry" />
        </mxCell>
        <mxCell id="4irvc4jYHN3HbSZMmXNK-33" value="" style="edgeStyle=elbowEdgeStyle;elbow=horizontal;endArrow=classic;html=1;curved=0;rounded=0;endSize=8;startSize=8;strokeWidth=3;fontStyle=1;fontSize=14;" parent="1" edge="1">
          <mxGeometry width="50" height="50" relative="1" as="geometry">
            <mxPoint x="1160" y="-6317" as="sourcePoint" />
            <mxPoint x="1313" y="-6546" as="targetPoint" />
            <Array as="points">
              <mxPoint x="1280" y="-6427" />
            </Array>
          </mxGeometry>
        </mxCell>
        <mxCell id="4irvc4jYHN3HbSZMmXNK-35" value="" style="edgeStyle=elbowEdgeStyle;elbow=horizontal;endArrow=classic;html=1;curved=0;rounded=0;endSize=8;startSize=8;strokeWidth=3;fontStyle=1;fontSize=14;" parent="1" edge="1">
          <mxGeometry width="50" height="50" relative="1" as="geometry">
            <mxPoint x="1376" y="-6546" as="sourcePoint" />
            <mxPoint x="1558" y="-6317" as="targetPoint" />
            <Array as="points">
              <mxPoint x="1410" y="-6614" />
            </Array>
          </mxGeometry>
        </mxCell>
        <mxCell id="4irvc4jYHN3HbSZMmXNK-14" value="" style="sketch=0;points=[[0,0,0],[0.25,0,0],[0.5,0,0],[0.75,0,0],[1,0,0],[0,1,0],[0.25,1,0],[0.5,1,0],[0.75,1,0],[1,1,0],[0,0.25,0],[0,0.5,0],[0,0.75,0],[1,0.25,0],[1,0.5,0],[1,0.75,0]];outlineConnect=0;fontColor=#232F3E;fillColor=#C925D1;strokeColor=#ffffff;dashed=0;verticalLabelPosition=bottom;verticalAlign=top;align=center;html=1;fontSize=14;fontStyle=1;aspect=fixed;shape=mxgraph.aws4.resourceIcon;resIcon=mxgraph.aws4.rds;strokeWidth=3;" parent="1" vertex="1">
          <mxGeometry x="1990" y="-6821" width="48" height="48" as="geometry" />
        </mxCell>
        <mxCell id="4irvc4jYHN3HbSZMmXNK-60" value="" style="sketch=0;outlineConnect=0;fontColor=#232F3E;gradientColor=none;fillColor=#232F3D;strokeColor=none;dashed=0;verticalLabelPosition=bottom;verticalAlign=top;align=center;html=1;fontSize=14;fontStyle=1;aspect=fixed;pointerEvents=1;shape=mxgraph.aws4.client;strokeWidth=3;" parent="1" vertex="1">
          <mxGeometry x="160" y="-6591.75" width="80.05" height="78" as="geometry" />
        </mxCell>
        <mxCell id="4irvc4jYHN3HbSZMmXNK-75" value="&lt;div&gt;&lt;font&gt;&lt;br&gt;&lt;/font&gt;&lt;/div&gt;&lt;div&gt;&lt;font&gt;&lt;br&gt;&lt;/font&gt;&lt;/div&gt;&lt;div&gt;&lt;font&gt;&lt;br&gt;&lt;/font&gt;&lt;/div&gt;&lt;div&gt;&lt;font&gt;&lt;br&gt;&lt;/font&gt;&lt;/div&gt;&lt;div&gt;&lt;font&gt;&lt;br&gt;&lt;/font&gt;&lt;/div&gt;&lt;div&gt;&lt;font&gt;&lt;br&gt;&lt;/font&gt;&lt;/div&gt;&lt;font&gt;&lt;div&gt;&lt;font&gt;&lt;br&gt;&lt;/font&gt;&lt;/div&gt;&lt;div&gt;&lt;span style=&quot;background-color: transparent; color: light-dark(rgb(35, 47, 62), rgb(189, 199, 212));&quot;&gt;Amazon Cloudfront&lt;/span&gt;&lt;/div&gt;&lt;/font&gt;" style="sketch=0;outlineConnect=0;fontColor=#232F3E;gradientColor=none;strokeColor=#ffffff;fillColor=#232F3E;dashed=0;verticalLabelPosition=middle;verticalAlign=bottom;align=center;html=1;whiteSpace=wrap;fontSize=14;fontStyle=1;spacing=3;shape=mxgraph.aws4.productIcon;prIcon=mxgraph.aws4.cloudfront;strokeWidth=3;" parent="1" vertex="1">
          <mxGeometry x="588" y="-6597" width="80" height="117" as="geometry" />
        </mxCell>
        <mxCell id="4irvc4jYHN3HbSZMmXNK-77" value="" style="group;fontStyle=1;strokeWidth=3;fontSize=14;" parent="1" vertex="1" connectable="0">
          <mxGeometry x="1469" y="-5993" width="222" height="111" as="geometry" />
        </mxCell>
        <mxCell id="4irvc4jYHN3HbSZMmXNK-78" value="" style="sketch=0;pointerEvents=1;shadow=0;dashed=0;html=1;strokeColor=none;fillColor=#DF8C42;labelPosition=center;verticalLabelPosition=bottom;verticalAlign=top;align=center;outlineConnect=0;shape=mxgraph.veeam2.aws_s3;fontStyle=1;strokeWidth=3;fontSize=14;" parent="4irvc4jYHN3HbSZMmXNK-77" vertex="1">
          <mxGeometry x="81" width="60" height="60" as="geometry" />
        </mxCell>
        <mxCell id="4irvc4jYHN3HbSZMmXNK-79" value="&lt;span&gt;AWS S3&lt;/span&gt;&lt;div&gt;&lt;span&gt;&amp;nbsp;Backup&lt;/span&gt;&lt;/div&gt;" style="text;html=1;align=center;verticalAlign=middle;whiteSpace=wrap;rounded=0;fontStyle=1;strokeWidth=3;fontSize=14;" parent="4irvc4jYHN3HbSZMmXNK-77" vertex="1">
          <mxGeometry y="49" width="222" height="62" as="geometry" />
        </mxCell>
        <mxCell id="SJvPJ_kMrdc4SI9LKanf-37" value="" style="sketch=0;outlineConnect=0;fontColor=#232F3E;gradientColor=none;fillColor=#ED7100;strokeColor=none;dashed=0;verticalLabelPosition=bottom;verticalAlign=top;align=center;html=1;fontSize=14;fontStyle=1;aspect=fixed;pointerEvents=1;shape=mxgraph.aws4.instances;strokeWidth=3;" parent="1" vertex="1">
          <mxGeometry x="1110" y="-6349" width="48" height="48" as="geometry" />
        </mxCell>
        <mxCell id="SJvPJ_kMrdc4SI9LKanf-33" value="" style="edgeStyle=orthogonalEdgeStyle;html=1;endArrow=block;elbow=vertical;startArrow=none;endFill=1;strokeColor=#545B64;rounded=0;strokeWidth=3;fontStyle=1;fontSize=14;" parent="1" edge="1">
          <mxGeometry width="100" relative="1" as="geometry">
            <mxPoint x="905" y="-6319" as="sourcePoint" />
            <mxPoint x="1110" y="-6319" as="targetPoint" />
          </mxGeometry>
        </mxCell>
        <mxCell id="SJvPJ_kMrdc4SI9LKanf-32" value="" style="edgeStyle=orthogonalEdgeStyle;html=1;endArrow=block;elbow=vertical;startArrow=none;endFill=1;strokeColor=#545B64;rounded=0;strokeWidth=3;fontStyle=1;fontSize=14;" parent="1" edge="1">
          <mxGeometry width="100" relative="1" as="geometry">
            <mxPoint x="905" y="-6797" as="sourcePoint" />
            <mxPoint x="1110" y="-6797" as="targetPoint" />
          </mxGeometry>
        </mxCell>
        <mxCell id="SJvPJ_kMrdc4SI9LKanf-34" value="" style="sketch=0;outlineConnect=0;fontColor=#232F3E;gradientColor=none;fillColor=#ED7100;strokeColor=none;dashed=0;verticalLabelPosition=bottom;verticalAlign=top;align=center;html=1;fontSize=14;fontStyle=1;aspect=fixed;pointerEvents=1;shape=mxgraph.aws4.instances;strokeWidth=3;" parent="1" vertex="1">
          <mxGeometry x="1110" y="-6827" width="48" height="48" as="geometry" />
        </mxCell>
        <mxCell id="4irvc4jYHN3HbSZMmXNK-30" value="" style="edgeStyle=elbowEdgeStyle;elbow=horizontal;endArrow=classic;html=1;curved=0;rounded=0;endSize=8;startSize=8;strokeWidth=3;fontStyle=1;fontSize=14;" parent="1" edge="1">
          <mxGeometry width="50" height="50" relative="1" as="geometry">
            <mxPoint x="1160" y="-6795" as="sourcePoint" />
            <mxPoint x="1314" y="-6576" as="targetPoint" />
            <Array as="points">
              <mxPoint x="1280" y="-6667" />
            </Array>
          </mxGeometry>
        </mxCell>
        <mxCell id="4irvc4jYHN3HbSZMmXNK-2" value="&lt;span&gt;EC2&lt;/span&gt;&lt;div&gt;&lt;span&gt;Frontend&lt;/span&gt;&lt;/div&gt;" style="text;html=1;align=center;verticalAlign=middle;whiteSpace=wrap;rounded=0;fontStyle=1;strokeWidth=3;fontSize=14;" parent="1" vertex="1">
          <mxGeometry x="1114" y="-6772" width="60" height="30" as="geometry" />
        </mxCell>
        <mxCell id="4irvc4jYHN3HbSZMmXNK-34" value="" style="edgeStyle=elbowEdgeStyle;elbow=horizontal;endArrow=classic;html=1;curved=0;rounded=0;endSize=8;startSize=8;strokeWidth=3;fontStyle=1;fontSize=14;" parent="1" edge="1">
          <mxGeometry width="50" height="50" relative="1" as="geometry">
            <mxPoint x="1373" y="-6575" as="sourcePoint" />
            <mxPoint x="1558" y="-6797" as="targetPoint" />
            <Array as="points">
              <mxPoint x="1410" y="-6637" />
            </Array>
          </mxGeometry>
        </mxCell>
        <mxCell id="4irvc4jYHN3HbSZMmXNK-41" value="" style="edgeStyle=orthogonalEdgeStyle;html=1;endArrow=block;elbow=vertical;startArrow=none;endFill=1;strokeColor=#000000;rounded=0;strokeWidth=3;fontStyle=1;fontSize=14;" parent="1" edge="1">
          <mxGeometry width="100" relative="1" as="geometry">
            <mxPoint x="1605" y="-6315" as="sourcePoint" />
            <mxPoint x="1995" y="-6315" as="targetPoint" />
          </mxGeometry>
        </mxCell>
        <mxCell id="4irvc4jYHN3HbSZMmXNK-39" value="" style="sketch=0;points=[[0,0,0],[0.25,0,0],[0.5,0,0],[0.75,0,0],[1,0,0],[0,1,0],[0.25,1,0],[0.5,1,0],[0.75,1,0],[1,1,0],[0,0.25,0],[0,0.5,0],[0,0.75,0],[1,0.25,0],[1,0.5,0],[1,0.75,0]];outlineConnect=0;fontColor=#232F3E;fillColor=#C925D1;strokeColor=#ffffff;dashed=0;verticalLabelPosition=bottom;verticalAlign=top;align=center;html=1;fontSize=14;fontStyle=1;aspect=fixed;shape=mxgraph.aws4.resourceIcon;resIcon=mxgraph.aws4.rds;strokeWidth=3;" parent="1" vertex="1">
          <mxGeometry x="1992" y="-6350" width="48" height="48" as="geometry" />
        </mxCell>
        <mxCell id="4irvc4jYHN3HbSZMmXNK-90" value="" style="edgeStyle=elbowEdgeStyle;elbow=horizontal;endArrow=classic;html=1;curved=0;rounded=0;endSize=8;startSize=8;strokeWidth=3;fontStyle=1;entryX=0;entryY=0.5;entryDx=0;entryDy=0;entryPerimeter=0;fontSize=14;" parent="1" target="4irvc4jYHN3HbSZMmXNK-39" edge="1">
          <mxGeometry width="50" height="50" relative="1" as="geometry">
            <mxPoint x="1611" y="-6799" as="sourcePoint" />
            <mxPoint x="1992" y="-6339" as="targetPoint" />
            <Array as="points">
              <mxPoint x="1731" y="-6667" />
            </Array>
          </mxGeometry>
        </mxCell>
        <mxCell id="rcBHeHrbFn--l14DDFYM-1" value="&lt;span&gt;Users&lt;/span&gt;" style="text;html=1;align=center;verticalAlign=middle;whiteSpace=wrap;rounded=0;fontStyle=1;strokeWidth=3;fontSize=14;" parent="1" vertex="1">
          <mxGeometry x="142" y="-6516" width="111.5" height="30" as="geometry" />
        </mxCell>
      </root>
    </mxGraphModel>
  </diagram>
</mxfile>
